<?xml version="1.0" encoding="UTF-8"?>
<svg version="1.1" xmlns="http://www.w3.org/2000/svg" width="457" height="504">
<path d="M0 0 C33.47004152 -0.09171776 66.94005157 -0.16212085 100.41019103 -0.20426132 C104.36891987 -0.20926366 108.32764847 -0.214441 112.28637695 -0.21972656 C113.07443059 -0.2207758 113.86248423 -0.22182505 114.67441828 -0.22290608 C127.4052627 -0.24027289 140.13603427 -0.27178986 152.86683559 -0.30861118 C165.94680667 -0.34612461 179.02673981 -0.36825774 192.10676247 -0.37635398 C200.16650209 -0.38182028 208.22603573 -0.39903362 216.28571189 -0.43166587 C222.48410853 -0.45547133 228.68235079 -0.45779378 234.8807869 -0.45243073 C237.41021168 -0.45352473 239.93964478 -0.46139469 242.46902275 -0.4768219 C271.28017449 -0.64382209 297.26910262 5.29796273 318.69921875 25.7109375 C319.45847656 26.46632813 320.21773438 27.22171875 321 28 C321.76957031 28.73476563 322.53914063 29.46953125 323.33203125 30.2265625 C335.02159025 42.13517627 341.56472414 58.46553254 341.4375 75.0625 C341.45748047 75.99126953 341.47746094 76.92003906 341.49804688 77.87695312 C341.49304093 85.01042823 340.26293471 91.54367967 335.22045898 96.88500977 C328.71919138 102.75155733 323.40064291 103.54595119 314.70703125 103.30859375 C308.05530905 102.75486767 304.17370501 100.52214812 299.6875 95.6875 C294.04240351 89.00719956 293.42200871 81.69019268 292.625 73.3125 C291.29234933 61.24137564 288.89318892 51.5549129 281 42 C280.01 41.34 279.02 40.68 278 40 C278 39.34 278 38.68 278 38 C277.45730469 37.731875 276.91460937 37.46375 276.35546875 37.1875 C274.66017313 36.3328236 272.97651076 35.45492903 271.30078125 34.5625 C269.82158203 33.7890625 269.82158203 33.7890625 268.3125 33 C267.33925781 32.484375 266.36601562 31.96875 265.36328125 31.4375 C258.57099249 28.53440794 251.80920764 27.702263 244.47679138 27.7215271 C243.6687253 27.7157347 242.86065921 27.7099423 242.02810627 27.70397437 C239.34739054 27.68710421 236.66684831 27.68410916 233.98608398 27.68115234 C232.05374231 27.67184519 230.12140463 27.66167535 228.18907166 27.65071106 C222.96250702 27.62348582 217.73596922 27.60828384 212.50935245 27.59528303 C207.04006302 27.57961973 201.57082814 27.55283972 196.10157776 27.5272522 C185.75335241 27.48052101 175.40511674 27.44374952 165.05684 27.41057932 C153.27205751 27.37231792 141.48732988 27.32291828 129.70259368 27.27259517 C105.46843649 27.16935951 81.23424402 27.08007193 57 27 C57.495 27.61875 57.99 28.2375 58.5 28.875 C60 31 60 31 60 33 C60.66 33 61.32 33 62 33 C63.33984375 34.4765625 63.33984375 34.4765625 64.9375 36.625 C65.56269531 37.45128906 66.18789062 38.27757812 66.83203125 39.12890625 C67.54746094 40.07636719 68.26289062 41.02382813 69 42 C70.70302569 44.19193258 72.41016169 46.37986682 74.125 48.5625 C74.5883374 49.15305176 75.0516748 49.74360352 75.52905273 50.35205078 C79.68091067 55.62783046 83.91647641 60.83336971 88.16040039 66.03515625 C92.1227091 70.89956368 96.02431587 75.80723777 99.88208008 80.75488281 C102.34269662 83.90671425 104.82963205 87.03363528 107.3515625 90.13671875 C107.9077124 90.82306396 108.4638623 91.50940918 109.03686523 92.21655273 C110.11828449 93.54877296 111.20360007 94.87784198 112.29321289 96.20336914 C116 100.7778464 116 100.7778464 116 103 C116.66 103 117.32 103 118 103 C119.56265298 104.84093365 121.00582635 106.68546448 122.4375 108.625 C123.34564949 109.82995851 124.25452795 111.03436788 125.1640625 112.23828125 C125.86837402 113.17534912 125.86837402 113.17534912 126.58691406 114.13134766 C128.79518006 117.05153908 131.04952599 119.93460085 133.3125 122.8125 C133.76423584 123.38758301 134.21597168 123.96266602 134.68139648 124.55517578 C138.78585535 129.76212221 142.97160289 134.90157237 147.16333008 140.03833008 C151.11219863 144.88512048 154.98848033 149.78349236 158.8359375 154.7109375 C162.33776704 159.18437293 165.90836717 163.59845818 169.5 168 C175.42270627 175.26522111 181.25312541 182.59500449 187 190 C187.5475293 190.70366699 188.09505859 191.40733398 188.65917969 192.13232422 C190.4024782 194.37629494 192.13959602 196.62492001 193.875 198.875 C194.41060547 199.56456787 194.94621094 200.25413574 195.49804688 200.96459961 C198.9631997 205.47810247 202.073001 210.12058366 205 215 C205.23372314 214.43756592 205.46744629 213.87513184 205.70825195 213.2956543 C212.95419357 195.9098598 220.52219956 178.67516436 228.18481445 161.46948242 C232.14600376 152.55990371 236.04715636 143.63866388 239.690979 134.59373474 C246.50334027 117.74832987 246.50334027 117.74832987 250 116 C253.47267629 115.7082968 256.95398961 115.7221733 260.4375 115.6875 C261.88866211 115.64399414 261.88866211 115.64399414 263.36914062 115.59960938 C264.29791016 115.59123047 265.22667969 115.58285156 266.18359375 115.57421875 C267.03493896 115.55963623 267.88628418 115.54505371 268.76342773 115.5300293 C271 116 271 116 272.59741211 117.49438477 C274.57662533 121.03009674 275.90415911 124.70322256 277.2578125 128.515625 C277.5620816 129.35492554 277.86635071 130.19422607 278.17984009 131.05895996 C278.83019433 132.85524536 279.47747072 134.65264757 280.12194824 136.4510498 C281.13288131 139.27199228 282.15165451 142.08998477 283.17285156 144.90722656 C284.18943247 147.71183243 285.205632 150.51656626 286.21936035 153.32220459 C288.6858836 160.14828231 291.19157422 166.95774574 293.75 173.75 C294.08950684 174.65322998 294.42901367 175.55645996 294.77880859 176.48706055 C296.53351977 181.14404908 298.30244155 185.79549794 300.07907104 190.44416809 C301.30414444 193.64973349 302.52742509 196.85598097 303.75 200.0625 C303.98845642 200.68748383 304.22691284 201.31246765 304.47259521 201.95639038 C307.50104654 209.90422152 310.36352506 217.86613143 312.96875 225.9609375 C313.97946245 228.93947646 315.13340605 231.79840639 316.375 234.6875 C319.00738973 240.81874004 321.17040072 247.08193794 323.34765625 253.38476562 C325.35009356 259.17198209 327.4441139 264.9107362 329.61376953 270.63745117 C332.12033497 277.27657041 334.5177636 283.95347967 336.9140625 290.63305664 C339.58827759 298.08396945 342.27585464 305.52989135 344.97265625 312.97265625 C358.54457421 350.43467821 358.54457421 350.43467821 364.95727539 368.67407227 C367.42588082 375.66431104 369.966006 382.62187296 372.5703125 389.5625 C384.09862895 420.33085952 384.09862895 420.33085952 387.7890625 435.546875 C389.6293478 442.83931867 392.71749572 449.7207314 396.0625 456.4375 C396.54847656 457.42621094 397.03445313 458.41492188 397.53515625 459.43359375 C398.85134038 461.73954835 400.12192562 463.17765483 402 465 C402 465.66 402 466.32 402 467 C402.66 467 403.32 467 404 467 C404.639375 467.845625 405.27875 468.69125 405.9375 469.5625 C412.54065974 477.75351634 423.95937034 483.16382071 434.2890625 484.390625 C436.37915411 484.54027356 438.4721608 484.65575576 440.56640625 484.7265625 C443 485 443 485 445 487 C445.32752234 489.71454956 445.1308425 492.25230759 445 495 C444 496 444 496 441.79984188 496.12304783 C440.33004297 496.12166514 440.33004297 496.12166514 438.83055115 496.12025452 C437.71009399 496.12162918 436.58963684 496.12300385 435.43522644 496.12442017 C434.19517349 496.12082489 432.95512054 496.11722961 431.67749023 496.11352539 C429.73143387 496.11374443 429.73143387 496.11374443 427.74606323 496.1139679 C424.17804071 496.11425586 420.61005152 496.10835932 417.04203677 496.10139394 C413.3170938 496.09516021 409.59215014 496.09455659 405.86720276 496.09336853 C398.80882637 496.09025527 391.7504654 496.08204195 384.69209582 496.07201904 C376.65837029 496.06085774 368.62464404 496.05534741 360.5909127 496.05032361 C344.06059918 496.03985933 327.53030216 496.02205954 311 496 C311 492.37 311 488.74 311 485 C312.0621875 484.70867187 313.124375 484.41734375 314.21875 484.1171875 C324.63977235 481.14450433 333.4217446 478.21440436 339.03515625 468.25390625 C342.42724636 460.32987388 342.53012714 451.47289412 342 443 C341.95842773 442.28602051 341.91685547 441.57204102 341.87402344 440.83642578 C340.66888657 423.36915752 334.8130151 407.57410426 328.84020996 391.30090332 C327.35591661 387.23618658 325.90170487 383.16071652 324.4453125 379.0859375 C322.33565111 373.18766253 320.22073238 367.29136096 318.09603882 361.39848328 C314.97435112 352.73877805 311.90684221 344.06254003 308.90112305 335.36181641 C304.5779456 322.85888 300.12766826 310.40052089 295.69000244 297.93786621 C295.0136735 296.03840193 294.3376442 294.13883096 293.66162109 292.23925781 C289.09248446 279.40468112 284.49487461 266.58165632 279.82080078 253.78491211 C277.72731932 248.03970292 275.69067963 242.27724335 273.6875 236.5 C270.99403232 228.73458107 268.1814066 221.01564295 265.33673096 213.30456543 C261.40666276 202.64980374 257.54067805 191.97734732 253.8125 181.25 C253.42594238 180.14317871 253.03938477 179.03635742 252.64111328 177.89599609 C252.29161621 176.88359863 251.94211914 175.87120117 251.58203125 174.828125 C251.27499268 173.9402832 250.9679541 173.05244141 250.65161133 172.13769531 C250 170 250 170 250 168 C249.34 168 248.68 168 248 168 C247.89526367 168.67877197 247.79052734 169.35754395 247.68261719 170.05688477 C246.86380367 173.58721271 245.52342055 176.78264557 244.078125 180.08984375 C243.78205353 180.77787582 243.48598206 181.4659079 243.18093872 182.17478943 C242.2086365 184.43107851 241.22943364 186.68429853 240.25 188.9375 C239.56682643 190.51822187 238.88405141 192.09911604 238.20166016 193.68017578 C236.80870619 196.90531782 235.41287102 200.1291895 234.01464844 203.35205078 C232.19243747 207.55313317 230.37995334 211.75833521 228.5703125 215.96484375 C223.44880782 227.85552606 218.24832827 239.70278966 212.91131592 251.49783325 C199.21438157 280.26486565 199.21438157 280.26486565 200.83984375 311.34765625 C204.95358236 320.75246608 212.22887729 327.55060512 220 334 C219.67 334.66 219.34 335.32 219 336 C206.10889784 336.77004371 193.54002872 333.61494957 183.67578125 324.9609375 C174.88014171 315.75884512 173.35815918 306.42812364 173 294 C172.34257812 294.93005859 172.34257812 294.93005859 171.671875 295.87890625 C166.69262842 302.8316347 161.44265246 309.51512532 156.078125 316.171875 C153.17007313 319.78048642 150.29677383 323.41516864 147.4375 327.0625 C146.98785889 327.63589111 146.53821777 328.20928223 146.07495117 328.80004883 C145.16941114 329.95525849 144.26405581 331.11061295 143.35888672 332.26611328 C141.07546697 335.17966827 138.78749197 338.08964193 136.5 341 C135.58331177 342.16664973 134.6666451 343.33331639 133.75 344.5 C128.25 351.5 128.25 351.5 126.87280273 353.25268555 C125.96331629 354.41028727 125.053972 355.5680007 124.14477539 356.72583008 C121.74445209 359.78215842 119.3411251 362.8360641 116.93359375 365.88671875 C116.43214844 366.52287109 115.93070312 367.15902344 115.4140625 367.81445312 C114.45273119 369.03391969 113.49053565 370.25270561 112.52734375 371.47070312 C110.58750636 373.93302648 108.74001939 376.38997091 107 379 C106.34 379 105.68 379 105 379 C104.64421875 380.06734375 104.64421875 380.06734375 104.28125 381.15625 C102.783068 384.48148321 100.89031553 386.74659857 98.5 389.5 C94.70762418 393.9302736 91.04599967 398.43227296 87.5 403.0625 C87.07912109 403.61035156 86.65824219 404.15820312 86.22460938 404.72265625 C84.40356697 407.10699982 82.66506788 409.50239818 81 412 C80.34 412 79.68 412 79 412 C78.7525 412.721875 78.505 413.44375 78.25 414.1875 C76.8889277 417.24991267 75.12680885 419.42794458 73 422 C91.45497968 421.91595351 109.90986712 421.82076663 128.36472034 421.71247292 C136.93445378 421.66244255 145.50417811 421.61599887 154.07397461 421.578125 C161.5471388 421.54508841 169.02023026 421.50519355 176.49331397 421.45720994 C180.44685661 421.43206042 184.40035173 421.41024568 188.35395241 421.39665604 C192.08285631 421.38373006 195.81159624 421.36156472 199.54040909 421.33261681 C201.54571097 421.31936672 203.55106887 421.31564002 205.55641174 421.31230164 C227.01503863 421.11568004 246.802899 414.46011735 262.49560547 399.54248047 C266.92513263 395.00081338 271.16201068 389.67597865 274 384 C281.75 384.875 281.75 384.875 284 386 C282.75455268 411.08073231 277.60221611 437.4009017 258.6875 455.25 C246.25466496 465.84951868 231.27101004 468.16895274 215.46522522 468.12698364 C214.54831435 468.12854363 213.63140348 468.13010362 212.68670744 468.13171089 C209.63755712 468.1356755 206.58845726 468.132549 203.53930664 468.12939453 C201.34420747 468.13075052 199.14910852 468.13253157 196.95401001 468.13470459 C191.01037766 468.13925351 185.06676272 468.13750031 179.12313008 468.1343255 C172.90341092 468.13179102 166.68369322 468.13414227 160.463974 468.13571167 C149.35968343 468.13764556 138.25540057 468.13454345 127.15111124 468.12945233 C117.0781946 468.12497726 107.00528948 468.12576761 96.93237305 468.13037109 C85.22707781 468.13571811 73.52178929 468.13771761 61.81649297 468.13475883 C55.62268035 468.13319727 49.42887567 468.1329992 43.23506355 468.13629532 C37.41973323 468.13917417 31.60442478 468.13719808 25.78909683 468.13140106 C23.65006611 468.13007397 21.51103356 468.13046672 19.37200356 468.13266373 C16.46327357 468.13537695 13.55461467 468.13199206 10.64588928 468.12698364 C9.79017257 468.12921436 8.93445586 468.13144509 8.05280834 468.13374341 C2.22830138 468.11415069 2.22830138 468.11415069 0 467 C-0.68855157 454.10878444 -0.68855157 454.10878444 1.875 450.1875 C2.57625 449.465625 3.2775 448.74375 4 448 C4.66 448 5.32 448 6 448 C6.22945312 447.46890625 6.45890625 446.9378125 6.6953125 446.390625 C8.4175897 443.23483564 10.62667411 440.53842652 12.875 437.75 C17.00636032 432.56382428 21.04184701 427.31949425 25 422 C29.68629794 415.71252505 34.48281398 409.52406621 39.34375 403.37109375 C45.86425041 395.11322317 52.2187825 386.73006509 58.515625 378.30078125 C62.05239049 373.58460677 65.65464023 368.91804922 69.24853516 364.24536133 C73.13006494 359.18352026 76.87478189 354.04983252 80.51171875 348.80859375 C81.00285156 348.21175781 81.49398437 347.61492187 82 347 C82.66 347 83.32 347 84 347 C84.20625 346.319375 84.4125 345.63875 84.625 344.9375 C86.19362957 341.58633682 88.19098762 339.27350754 90.66015625 336.55078125 C92.09089081 335.02350546 92.09089081 335.02350546 93 333 C93.66 333 94.32 333 95 333 C95.24105469 332.28328125 95.48210937 331.5665625 95.73046875 330.828125 C97.18558758 327.58656798 98.9762712 325.42653054 101.3125 322.75 C105.51055627 317.85588893 109.48341066 312.82825582 113.375 307.6875 C118.05534156 301.5150154 122.82287801 295.42692374 127.68212891 289.39453125 C131.35186194 284.83143577 134.93813665 280.21060131 138.49511719 275.55932617 C141.55976973 271.55688008 144.69165195 267.61407763 147.84765625 263.68359375 C150.5316347 260.33714512 153.2092434 256.98598244 155.875 253.625 C156.35187256 253.02953369 156.82874512 252.43406738 157.32006836 251.82055664 C162.45386026 245.3297991 164.60368121 240.08976658 163.77734375 231.75390625 C161.71608417 222.6996327 155.37586239 215.34197474 150 208 C148.8852956 206.45972302 147.77071453 204.91935679 146.65625 203.37890625 C138.67182298 192.40286876 130.38790281 181.66931131 122 171 C121.02070687 169.75140126 120.04153403 168.50270817 119.0625 167.25390625 C116.82008542 164.39552584 114.57407897 161.53999359 112.32666016 158.68554688 C110.51029811 156.37782447 108.69600891 154.06847668 106.88183594 151.7590332 C105.96205766 150.58818471 105.04213622 149.41744866 104.12207031 148.24682617 C101.84104052 145.34454359 99.56153702 142.44108704 97.28515625 139.53515625 C92.05798861 132.86601133 86.79239442 126.22975057 81.49169922 119.61889648 C72.77465616 108.73745608 64.21540502 97.73184771 55.67578125 86.7109375 C49.61653743 78.89589514 43.52267317 71.11309951 37.3293457 63.40380859 C33.56744834 58.71913441 29.84999882 54.00126968 26.14599609 49.27075195 C23.2755298 45.60980023 20.38195241 41.96868865 17.46582031 38.34399414 C16.45081496 37.07783171 15.44099183 35.80749671 14.43652344 34.53295898 C11.65309006 31.00614969 8.80672069 27.61101622 5.71411133 24.35009766 C0.95697141 18.54189714 -0.64024165 15.03937551 -0.265625 7.58984375 C-0.2464502 6.8563269 -0.22727539 6.12281006 -0.20751953 5.36706543 C-0.15794816 3.57739321 -0.08173825 1.78849177 0 0 Z " fill="#C8A05C" transform="translate(6,2)"/>
<path d="M0 0 C1.45116211 -0.04350586 1.45116211 -0.04350586 2.93164062 -0.08789062 C3.86041016 -0.09626953 4.78917969 -0.10464844 5.74609375 -0.11328125 C6.59743896 -0.12786377 7.44878418 -0.14244629 8.32592773 -0.1574707 C10.5625 0.3125 10.5625 0.3125 12.15991211 1.80688477 C14.13912533 5.34259674 15.46665911 9.01572256 16.8203125 12.828125 C17.1245816 13.66742554 17.42885071 14.50672607 17.74234009 15.37145996 C18.39269433 17.16774536 19.03997072 18.96514757 19.68444824 20.7635498 C20.69538131 23.58449228 21.71415451 26.40248477 22.73535156 29.21972656 C23.75193247 32.02433243 24.768132 34.82906626 25.78186035 37.63470459 C28.2483836 44.46078231 30.75407422 51.27024574 33.3125 58.0625 C33.82176025 59.41734497 33.82176025 59.41734497 34.34130859 60.79956055 C36.09601977 65.45654908 37.86494155 70.10799794 39.64157104 74.75666809 C40.86664444 77.96223349 42.08992509 81.16848097 43.3125 84.375 C43.67018463 85.31247574 43.67018463 85.31247574 44.03509521 86.26889038 C47.06354654 94.21672152 49.92602506 102.17863143 52.53125 110.2734375 C53.54196245 113.25197646 54.69590605 116.11090639 55.9375 119 C58.56988973 125.13124004 60.73290072 131.39443794 62.91015625 137.69726562 C64.91259356 143.48448209 67.0066139 149.2232362 69.17626953 154.94995117 C71.68283497 161.58907041 74.0802636 168.26597967 76.4765625 174.94555664 C79.15077759 182.39646945 81.83835464 189.84239135 84.53515625 197.28515625 C98.10707421 234.74717821 98.10707421 234.74717821 104.51977539 252.98657227 C106.98838082 259.97681104 109.528506 266.93437296 112.1328125 273.875 C123.66112895 304.64335952 123.66112895 304.64335952 127.3515625 319.859375 C129.1918478 327.15181867 132.27999572 334.0332314 135.625 340.75 C136.11097656 341.73871094 136.59695313 342.72742188 137.09765625 343.74609375 C138.41384038 346.05204835 139.68442562 347.49015483 141.5625 349.3125 C141.5625 349.9725 141.5625 350.6325 141.5625 351.3125 C142.2225 351.3125 142.8825 351.3125 143.5625 351.3125 C144.201875 352.158125 144.84125 353.00375 145.5 353.875 C152.10315974 362.06601634 163.52187034 367.47632071 173.8515625 368.703125 C175.94165411 368.85277356 178.0346608 368.96825576 180.12890625 369.0390625 C182.5625 369.3125 182.5625 369.3125 184.5625 371.3125 C184.89002234 374.02704956 184.6933425 376.56480759 184.5625 379.3125 C183.5625 380.3125 183.5625 380.3125 181.36234188 380.43554783 C179.89254297 380.43416514 179.89254297 380.43416514 178.39305115 380.43275452 C177.27259399 380.43412918 176.15213684 380.43550385 174.99772644 380.43692017 C173.75767349 380.43332489 172.51762054 380.42972961 171.23999023 380.42602539 C169.29393387 380.42624443 169.29393387 380.42624443 167.30856323 380.4264679 C163.74054071 380.42675586 160.17255152 380.42085932 156.60453677 380.41389394 C152.8795938 380.40766021 149.15465014 380.40705659 145.42970276 380.40586853 C138.37132637 380.40275527 131.3129654 380.39454195 124.25459582 380.38451904 C116.22087029 380.37335774 108.18714404 380.36784741 100.1534127 380.36282361 C83.62309918 380.35235933 67.09280216 380.33455954 50.5625 380.3125 C50.5625 376.6825 50.5625 373.0525 50.5625 369.3125 C51.6246875 369.02117187 52.686875 368.72984375 53.78125 368.4296875 C64.20227235 365.45700433 72.9842446 362.52690436 78.59765625 352.56640625 C81.98974636 344.64237388 82.09262714 335.78539412 81.5625 327.3125 C81.52092773 326.59852051 81.47935547 325.88454102 81.43652344 325.14892578 C80.23138657 307.68165752 74.3755151 291.88660426 68.40270996 275.61340332 C66.91841661 271.54868658 65.46420487 267.47321652 64.0078125 263.3984375 C61.89815111 257.50016253 59.78323238 251.60386096 57.65853882 245.71098328 C54.53685112 237.05127805 51.46934221 228.37504003 48.46362305 219.67431641 C44.1404456 207.17138 39.69016826 194.71302089 35.25250244 182.25036621 C34.5761735 180.35090193 33.9001442 178.45133096 33.22412109 176.55175781 C28.65498446 163.71718112 24.05737461 150.89415632 19.38330078 138.09741211 C17.28981932 132.35220292 15.25317963 126.58974335 13.25 120.8125 C10.55653232 113.04708107 7.7439066 105.32814295 4.89923096 97.61706543 C0.96916276 86.96230374 -2.89682195 76.28984732 -6.625 65.5625 C-7.01155762 64.45567871 -7.39811523 63.34885742 -7.79638672 62.20849609 C-8.14588379 61.19609863 -8.49538086 60.18370117 -8.85546875 59.140625 C-9.16250732 58.2527832 -9.4695459 57.36494141 -9.78588867 56.45019531 C-10.4375 54.3125 -10.4375 54.3125 -10.4375 52.3125 C-11.0975 52.3125 -11.7575 52.3125 -12.4375 52.3125 C-12.54223633 52.99127197 -12.64697266 53.67004395 -12.75488281 54.36938477 C-13.57369633 57.89971271 -14.91407945 61.09514557 -16.359375 64.40234375 C-16.65544647 65.09037582 -16.95151794 65.7784079 -17.25656128 66.48728943 C-18.2288635 68.74357851 -19.20806636 70.99679853 -20.1875 73.25 C-20.87067357 74.83072187 -21.55344859 76.41161604 -22.23583984 77.99267578 C-23.62879381 81.21781782 -25.02462898 84.4416895 -26.42285156 87.66455078 C-28.24506253 91.86563317 -30.05754666 96.07083521 -31.8671875 100.27734375 C-36.98869218 112.16802606 -42.18917173 124.01528966 -47.52618408 135.81033325 C-61.22311843 164.57736565 -61.22311843 164.57736565 -59.59765625 195.66015625 C-55.48391764 205.06496608 -48.20862271 211.86310512 -40.4375 218.3125 C-40.7675 218.9725 -41.0975 219.6325 -41.4375 220.3125 C-54.32860216 221.08254371 -66.89747128 217.92744957 -76.76171875 209.2734375 C-83.37596799 202.35353904 -86.55466149 195.38415195 -87.0625 185.8125 C-86.36616833 166.14640567 -74.72325977 146.45954919 -67.04034424 128.80296326 C-59.67920172 112.01170092 -59.67920172 112.01170092 -53.59545898 94.73291016 C-52.48409847 91.4501438 -51.17807803 88.41728341 -49.69140625 85.2890625 C-46.41166794 78.2899974 -43.31290173 71.22102718 -40.25 64.125 C-39.6841176 62.81761156 -39.11819895 61.5102388 -38.55224609 60.20288086 C-34.8390748 51.61439918 -31.18873867 43.00058085 -27.5625 34.375 C-23.72387379 25.251478 -19.77022804 16.21343042 -15.4375 7.3125 C-14.921875 6.21421875 -14.40625 5.1159375 -13.875 3.984375 C-11.0010478 -1.35742746 -5.44640031 0.05421102 0 0 Z " fill="#FDFEFD" transform="translate(266.4375,117.6875)"/>
<path d="M0 0 C33.47004152 -0.09171776 66.94005157 -0.16212085 100.41019103 -0.20426132 C104.36891987 -0.20926366 108.32764847 -0.214441 112.28637695 -0.21972656 C113.07443059 -0.2207758 113.86248423 -0.22182505 114.67441828 -0.22290608 C127.4052627 -0.24027289 140.13603427 -0.27178986 152.86683559 -0.30861118 C165.94680667 -0.34612461 179.02673981 -0.36825774 192.10676247 -0.37635398 C200.16650209 -0.38182028 208.22603573 -0.39903362 216.28571189 -0.43166587 C222.48410853 -0.45547133 228.68235079 -0.45779378 234.8807869 -0.45243073 C237.41021168 -0.45352473 239.93964478 -0.46139469 242.46902275 -0.4768219 C271.28017449 -0.64382209 297.26910262 5.29796273 318.69921875 25.7109375 C319.45847656 26.46632813 320.21773438 27.22171875 321 28 C321.76957031 28.73476563 322.53914063 29.46953125 323.33203125 30.2265625 C335.02159025 42.13517627 341.56472414 58.46553254 341.4375 75.0625 C341.45748047 75.99126953 341.47746094 76.92003906 341.49804688 77.87695312 C341.49304093 85.01042823 340.26293471 91.54367967 335.22045898 96.88500977 C328.71919138 102.75155733 323.40064291 103.54595119 314.70703125 103.30859375 C308.05530905 102.75486767 304.17370501 100.52214812 299.6875 95.6875 C294.04240351 89.00719956 293.42200871 81.69019268 292.625 73.3125 C291.29234933 61.24137564 288.89318892 51.5549129 281 42 C280.01 41.34 279.02 40.68 278 40 C278 39.34 278 38.68 278 38 C277.45730469 37.731875 276.91460937 37.46375 276.35546875 37.1875 C274.66017313 36.3328236 272.97651076 35.45492903 271.30078125 34.5625 C269.82158203 33.7890625 269.82158203 33.7890625 268.3125 33 C267.33925781 32.484375 266.36601562 31.96875 265.36328125 31.4375 C258.57099249 28.53440794 251.80920764 27.702263 244.47679138 27.7215271 C243.6687253 27.7157347 242.86065921 27.7099423 242.02810627 27.70397437 C239.34739054 27.68710421 236.66684831 27.68410916 233.98608398 27.68115234 C232.05374231 27.67184519 230.12140463 27.66167535 228.18907166 27.65071106 C222.96250702 27.62348582 217.73596922 27.60828384 212.50935245 27.59528303 C207.04006302 27.57961973 201.57082814 27.55283972 196.10157776 27.5272522 C185.75335241 27.48052101 175.40511674 27.44374952 165.05684 27.41057932 C153.27205751 27.37231792 141.48732988 27.32291828 129.70259368 27.27259517 C105.46843649 27.16935951 81.23424402 27.08007193 57 27 C57 26.34 57 25.68 57 25 C82.99984012 24.88307199 108.99964069 24.79496532 134.99969101 24.74093914 C147.07263746 24.71518435 159.1454203 24.68008577 171.21826172 24.62280273 C181.74394698 24.57288454 192.26951372 24.54068919 202.79531407 24.52955753 C208.36597829 24.52305308 213.93630351 24.50782232 219.50685883 24.47134972 C224.75670394 24.43725741 230.00607238 24.42697377 235.25601768 24.43446159 C237.17639703 24.43309296 239.09679332 24.42323983 241.01707649 24.40397263 C251.70798188 24.30202215 260.41066394 24.64376986 270 30 C271.23157648 30.675056 271.23157648 30.675056 272.48803329 31.3637495 C274.75 32.6875 274.75 32.6875 278 35 C278 35.66 278 36.32 278 37 C279.32 37.66 280.64 38.32 282 39 C282 39.66 282 40.32 282 41 C282.57621094 41.19464844 283.15242188 41.38929687 283.74609375 41.58984375 C289.25246573 45.0349049 292.10734613 53.00442061 294 59 C295.06102159 64.39722238 295.6304504 69.82586651 296.07641602 75.30493164 C296.77295299 83.76649209 298.48465815 90.25902663 304 97 C310.12105468 100.90705618 316.91319318 100.82912149 324 100 C326.97780185 98.94498125 329.27522725 97.64514581 332 96 C332.66 96 333.32 96 334 96 C339.37379167 83.71704762 338.8727232 72.15606576 335.75390625 59.2890625 C334.97070689 55.87220311 334.45302156 52.4746314 334 49 C333.34 49 332.68 49 332 49 C330.59765625 46.953125 330.59765625 46.953125 329.0625 44.25 C327.5737339 41.64561122 326.13635002 39.17760142 324.30859375 36.796875 C323 35 323 35 323 33 C322.01 32.67 321.02 32.34 320 32 C317.3125 29.5625 317.3125 29.5625 315 27 C315 26.34 315 25.68 315 25 C313.68 24.67 312.36 24.34 311 24 C311 23.34 311 22.68 311 22 C310.01 22 309.02 22 308 22 C307 21 306 20 305 19 C304.01 19 303.02 19 302 19 C301.1646875 18.13375 301.1646875 18.13375 300.3125 17.25 C295.47627103 12.54447993 289.41338483 10.71787094 283 9 C281.80375 8.525625 280.6075 8.05125 279.375 7.5625 C265.25296923 2.33825497 251.63304447 2.55698085 236.7487793 2.56762695 C234.19516529 2.55860047 231.6415556 2.54827108 229.08795166 2.53674316 C223.61186973 2.51493083 218.13588664 2.50209017 212.65976524 2.49761391 C204.74246569 2.49112637 196.82527981 2.4681436 188.90802632 2.44127061 C176.05954987 2.39810177 163.21107825 2.36807864 150.36254883 2.34643555 C137.88921749 2.32539606 125.41592548 2.29809518 112.94262695 2.26245117 C112.1724105 2.26025235 111.40219405 2.25805352 110.60863771 2.25578807 C106.74428121 2.24471767 102.87992507 2.233525 99.01556909 2.22227156 C67.0104122 2.12922683 35.00524107 2.057564 3 2 C3.08760589 4.06326977 3.19579273 6.1256716 3.3125 8.1875 C3.37050781 9.33605469 3.42851562 10.48460937 3.48828125 11.66796875 C4.24980952 16.6266223 6.44321211 19.6177892 10 23 C10.90103977 24.14172962 11.77907882 25.30188257 12.63671875 26.4765625 C13.12817383 27.14349121 13.61962891 27.81041992 14.12597656 28.49755859 C14.6412793 29.19961426 15.15658203 29.90166992 15.6875 30.625 C19.76688484 36.14321838 23.93885796 41.41530167 28.671875 46.3984375 C30 48 30 48 30 50 C30.66 50 31.32 50 32 50 C33.7265625 52.1171875 33.7265625 52.1171875 35.625 54.875 C36.25664063 55.77992187 36.88828125 56.68484375 37.5390625 57.6171875 C39 60 39 60 39 62 C39.99 62.33 40.98 62.66 42 63 C43.38671875 64.5234375 43.38671875 64.5234375 44.6875 66.375 C45.12449219 66.98085937 45.56148437 67.58671875 46.01171875 68.2109375 C47 70 47 70 47 73 C47.639375 73.268125 48.27875 73.53625 48.9375 73.8125 C51 75 51 75 52 78 C52.66 78 53.32 78 54 78 C55.0064275 79.66279327 56.00585407 81.32983484 57 83 C57.99 83.66 58.98 84.32 60 85 C64 90.6722408 64 90.6722408 64 94 C64.66 94 65.32 94 66 94 C67.74940101 96.02578207 69.38321122 98.05922411 71 100.1875 C71.48186768 100.81301758 71.96373535 101.43853516 72.46020508 102.08300781 C73.4688413 103.39319846 74.47506076 104.70525275 75.47900391 106.01904297 C76.95535202 107.94185013 78.44881339 109.84983598 79.94921875 111.75390625 C80.86213378 112.91914972 81.77490046 114.08450943 82.6875 115.25 C83.12126953 115.79809326 83.55503906 116.34618652 84.00195312 116.91088867 C87 120.7727692 87 120.7727692 87 123 C87.66 123 88.32 123 89 123 C92.61980085 126.09007389 94.58682778 128.17965738 95 133 C95.99 133.33 96.98 133.66 98 134 C99.52869058 135.97017882 100.92745008 137.93253498 102.3125 140 C106.87597283 146.6130508 111.83664959 152.80924426 117.0012207 158.9609375 C128 172.08815651 128 172.08815651 128 175 C128.66 175 129.32 175 130 175 C130.33 176.32 130.66 177.64 131 179 C131.66 179 132.32 179 133 179 C137.39760832 183.79429979 140.97076458 189.34878251 144.51171875 194.7890625 C146.5081746 197.75492605 148.68650988 200.56364715 150.8984375 203.37109375 C152 205 152 205 152 207 C152.66 207 153.32 207 154 207 C161.03973758 216.48680001 168.11012427 226.86264135 167 239 C166.18690396 242.40365784 165.15779888 245.69889486 164 249 C163.34 249 162.68 249 162 249 C161.67 250.32 161.34 251.64 161 253 C160.34 253 159.68 253 159 253 C158.7525 253.721875 158.505 254.44375 158.25 255.1875 C156.87730408 258.27606582 155.27646704 260.51011418 153 263 C152.34 263 151.68 263 151 263 C150.7525 263.721875 150.505 264.44375 150.25 265.1875 C148.87730408 268.27606582 147.27646704 270.51011418 145 273 C144.34 273 143.68 273 143 273 C142.5978125 273.86625 142.5978125 273.86625 142.1875 274.75 C140.97070811 277.05550043 139.69666121 279.02056192 138 281 C137.34 281 136.68 281 136 281 C135.79375 281.82757813 135.5875 282.65515625 135.375 283.5078125 C133.61461496 287.97879041 131.02961657 291.1880138 128 294.875 C127.4534375 295.56335938 126.906875 296.25171875 126.34375 296.9609375 C123.32304278 300.69239936 123.32304278 300.69239936 122 302 C121.34 302 120.68 302 120 302 C119.7525 302.70511719 119.505 303.41023438 119.25 304.13671875 C117.83896341 307.36887443 116.0749274 309.96328902 114 312.8125 C112.948125 314.27623047 112.948125 314.27623047 111.875 315.76953125 C111.25625 316.50558594 110.6375 317.24164063 110 318 C109.34 318 108.68 318 108 318 C107.7525 318.72574219 107.505 319.45148438 107.25 320.19921875 C105.87572546 323.27845264 104.25344071 325.31466039 102 327.8125 C101.29875 328.60269531 100.5975 329.39289063 99.875 330.20703125 C98 332 98 332 96 332 C95.938125 332.886875 95.87625 333.77375 95.8125 334.6875 C94.79970048 338.81660573 93.07969149 340.13517071 90 343 C89.34 343.99 88.68 344.98 88 346 C85.93566387 349.0965042 83.77024751 351.52135749 81 354 C80.34 354 79.68 354 79 354 C78.9175 354.556875 78.835 355.11375 78.75 355.6875 C77.76104459 358.73677919 76.15242534 360.65189963 74 363 C73.34 363 72.68 363 72 363 C71.7525 363.886875 71.505 364.77375 71.25 365.6875 C69.74346596 369.6798152 67.91875337 373.04062332 64 375 C63.484375 375.94875 62.96875 376.8975 62.4375 377.875 C59.91448957 382.50051912 56.5208175 386.34986406 53.12109375 390.3515625 C51.15236285 392.80975689 49.60503557 395.29917527 48 398 C46.33333333 399.66666667 44.66666667 401.33333333 43 403 C41.98648336 404.65848177 40.98879205 406.32665961 40 408 C38.83373033 409.61966725 37.64415948 411.22269503 36.4375 412.8125 C35.83808594 413.60269531 35.23867188 414.39289063 34.62109375 415.20703125 C33.81865234 416.09455078 33.81865234 416.09455078 33 417 C32.34 417 31.68 417 31 417 C30.62488281 418.06734375 30.62488281 418.06734375 30.2421875 419.15625 C28.86979367 422.29808242 27.17072511 424.75178061 25.125 427.5 C24.44695313 428.4178125 23.76890625 429.335625 23.0703125 430.28125 C22.38710938 431.1784375 21.70390625 432.075625 21 433 C20.29617187 433.9384375 19.59234375 434.876875 18.8671875 435.84375 C18.25101563 436.5553125 17.63484375 437.266875 17 438 C16.34 438 15.68 438 15 438 C14.75378906 438.54269531 14.50757813 439.08539063 14.25390625 439.64453125 C12.71873588 442.52835597 10.87306053 445.05640229 8.9375 447.6875 C8.22464844 448.66074219 7.51179687 449.63398438 6.77734375 450.63671875 C5 453 5 453 4 454 C3.76636119 455.84891946 3.58696365 457.70488031 3.4375 459.5625 C3.35371094 460.57441406 3.26992187 461.58632813 3.18359375 462.62890625 C3.09271484 463.80259766 3.09271484 463.80259766 3 465 C31.80761621 464.96364647 60.61512641 464.90692852 89.42264301 464.82207905 C92.82945038 464.81206249 96.23625823 464.80221821 99.64306641 464.79248047 C100.32125423 464.7905391 100.99944205 464.78859772 101.69818102 464.78659752 C112.65594712 464.75564003 123.61369232 464.73861438 134.57149388 464.72680578 C145.82880184 464.71436171 157.08600144 464.68649281 168.34324729 464.64538693 C174.66057161 464.62280213 180.97774052 464.60708755 187.2951088 464.60811615 C193.24920431 464.6088645 199.20295667 464.59084281 205.15696335 464.55883217 C207.33446944 464.55035945 209.51201413 464.54856524 211.68952942 464.55419731 C232.51584534 464.62738353 232.51584534 464.62738353 251.25 456.25 C255.86554622 453 255.86554622 453 258 453 C258 452.34 258 451.68 258 451 C258.66 451 259.32 451 260 451 C260.061875 450.443125 260.12375 449.88625 260.1875 449.3125 C261.32655851 446.07056423 263.5843041 444.4156959 266 442 C267.79320824 438.83354526 267.79320824 438.83354526 269 436 C269.66 436 270.32 436 271 436 C271.268125 434.7625 271.53625 433.525 271.8125 432.25 C275.14697777 417.28032321 275.14697777 417.28032321 276.9921875 412.34765625 C278.44715242 407.51469139 278.99296292 402.62325243 279.625 397.625 C279.7590625 396.60277344 279.893125 395.58054687 280.03125 394.52734375 C280.35946188 392.01886722 280.68221324 389.50981487 281 387 C279.02 386.67 277.04 386.34 275 386 C275 386.99 275 387.98 275 389 C274.34 389 273.68 389 273 389 C272.90589844 389.57234375 272.81179688 390.1446875 272.71484375 390.734375 C271.83488251 393.52332319 270.50184848 395.07276886 268.5625 397.25 C267.94503906 397.95640625 267.32757813 398.6628125 266.69140625 399.390625 C265 401 265 401 263 401 C262.6596875 401.86625 262.6596875 401.86625 262.3125 402.75 C260.62764169 405.63832854 258.69790905 407.02153337 256 409 C254.4840625 410.2065625 254.4840625 410.2065625 252.9375 411.4375 C248.06277375 414.8921973 242.5268121 416.82748871 237 419 C236.12730469 419.38542969 235.25460938 419.77085937 234.35546875 420.16796875 C233.12763672 420.70357422 233.12763672 420.70357422 231.875 421.25 C231.17117187 421.56453125 230.46734375 421.8790625 229.7421875 422.203125 C221.04538618 424.7304006 211.5194701 424.16622907 202.55419922 424.20532227 C201.1241682 424.21492141 199.69413989 424.22493262 198.26411438 424.23532104 C194.41154116 424.26215587 190.55895596 424.28328019 186.70634222 424.30332303 C182.66912545 424.32531611 178.6319447 424.3526391 174.59475708 424.37937927 C166.96296894 424.42912724 159.33116062 424.47413182 151.69933331 424.51740164 C143.00516806 424.56692779 134.31103898 424.62178848 125.61690879 424.67708123 C107.7446395 424.79062624 89.87233601 424.89752421 72 425 C72.66 424.01 73.32 423.02 74 422 C76.43303585 421.62082577 76.43303585 421.62082577 79.55735779 421.61473083 C80.73902023 421.60508301 81.92068268 421.59543518 83.13815308 421.585495 C84.4414859 421.59007217 85.74481873 421.59464935 87.08764648 421.59936523 C88.46909684 421.59362504 89.85054218 421.58654324 91.23197937 421.57821655 C94.21238792 421.56307329 97.192617 421.55733183 100.17306328 421.55874443 C104.89363949 421.56077627 109.6139747 421.54121945 114.33448792 421.51856995 C123.51639334 421.47752918 132.69828015 421.45899196 141.88025665 421.44239807 C153.53478233 421.42007532 165.1892521 421.38629045 176.84368759 421.33519894 C181.52722129 421.31537249 186.21063001 421.30570349 190.89420402 421.30424678 C193.82396721 421.30147599 196.75366274 421.29060028 199.68339729 421.27773666 C201.66961835 421.27148627 203.65586287 421.2750307 205.64208984 421.27897644 C227.058879 421.1578257 246.84642176 414.41874419 262.49560547 399.54248047 C266.92513263 395.00081338 271.16201068 389.67597865 274 384 C281.75 384.875 281.75 384.875 284 386 C282.75455268 411.08073231 277.60221611 437.4009017 258.6875 455.25 C246.25466496 465.84951868 231.27101004 468.16895274 215.46522522 468.12698364 C214.54831435 468.12854363 213.63140348 468.13010362 212.68670744 468.13171089 C209.63755712 468.1356755 206.58845726 468.132549 203.53930664 468.12939453 C201.34420747 468.13075052 199.14910852 468.13253157 196.95401001 468.13470459 C191.01037766 468.13925351 185.06676272 468.13750031 179.12313008 468.1343255 C172.90341092 468.13179102 166.68369322 468.13414227 160.463974 468.13571167 C149.35968343 468.13764556 138.25540057 468.13454345 127.15111124 468.12945233 C117.0781946 468.12497726 107.00528948 468.12576761 96.93237305 468.13037109 C85.22707781 468.13571811 73.52178929 468.13771761 61.81649297 468.13475883 C55.62268035 468.13319727 49.42887567 468.1329992 43.23506355 468.13629532 C37.41973323 468.13917417 31.60442478 468.13719808 25.78909683 468.13140106 C23.65006611 468.13007397 21.51103356 468.13046672 19.37200356 468.13266373 C16.46327357 468.13537695 13.55461467 468.13199206 10.64588928 468.12698364 C9.79017257 468.12921436 8.93445586 468.13144509 8.05280834 468.13374341 C2.22830138 468.11415069 2.22830138 468.11415069 0 467 C-0.68855157 454.10878444 -0.68855157 454.10878444 1.875 450.1875 C2.57625 449.465625 3.2775 448.74375 4 448 C4.66 448 5.32 448 6 448 C6.22945312 447.46890625 6.45890625 446.9378125 6.6953125 446.390625 C8.4175897 443.23483564 10.62667411 440.53842652 12.875 437.75 C17.00636032 432.56382428 21.04184701 427.31949425 25 422 C29.68629794 415.71252505 34.48281398 409.52406621 39.34375 403.37109375 C45.86425041 395.11322317 52.2187825 386.73006509 58.515625 378.30078125 C62.05239049 373.58460677 65.65464023 368.91804922 69.24853516 364.24536133 C73.13006494 359.18352026 76.87478189 354.04983252 80.51171875 348.80859375 C81.00285156 348.21175781 81.49398437 347.61492187 82 347 C82.66 347 83.32 347 84 347 C84.20625 346.319375 84.4125 345.63875 84.625 344.9375 C86.19362957 341.58633682 88.19098762 339.27350754 90.66015625 336.55078125 C92.09089081 335.02350546 92.09089081 335.02350546 93 333 C93.66 333 94.32 333 95 333 C95.24105469 332.28328125 95.48210937 331.5665625 95.73046875 330.828125 C97.18558758 327.58656798 98.9762712 325.42653054 101.3125 322.75 C105.51055627 317.85588893 109.48341066 312.82825582 113.375 307.6875 C118.05534156 301.5150154 122.82287801 295.42692374 127.68212891 289.39453125 C131.35186194 284.83143577 134.93813665 280.21060131 138.49511719 275.55932617 C141.55976973 271.55688008 144.69165195 267.61407763 147.84765625 263.68359375 C150.5316347 260.33714512 153.2092434 256.98598244 155.875 253.625 C156.35187256 253.02953369 156.82874512 252.43406738 157.32006836 251.82055664 C162.45386026 245.3297991 164.60368121 240.08976658 163.77734375 231.75390625 C161.71608417 222.6996327 155.37586239 215.34197474 150 208 C148.8852956 206.45972302 147.77071453 204.91935679 146.65625 203.37890625 C138.67182298 192.40286876 130.38790281 181.66931131 122 171 C121.02070687 169.75140126 120.04153403 168.50270817 119.0625 167.25390625 C116.82008542 164.39552584 114.57407897 161.53999359 112.32666016 158.68554688 C110.51029811 156.37782447 108.69600891 154.06847668 106.88183594 151.7590332 C105.96205766 150.58818471 105.04213622 149.41744866 104.12207031 148.24682617 C101.84104052 145.34454359 99.56153702 142.44108704 97.28515625 139.53515625 C92.05798861 132.86601133 86.79239442 126.22975057 81.49169922 119.61889648 C72.77465616 108.73745608 64.21540502 97.73184771 55.67578125 86.7109375 C49.61653743 78.89589514 43.52267317 71.11309951 37.3293457 63.40380859 C33.56744834 58.71913441 29.84999882 54.00126968 26.14599609 49.27075195 C23.2755298 45.60980023 20.38195241 41.96868865 17.46582031 38.34399414 C16.45081496 37.07783171 15.44099183 35.80749671 14.43652344 34.53295898 C11.65309006 31.00614969 8.80672069 27.61101622 5.71411133 24.35009766 C0.95697141 18.54189714 -0.64024165 15.03937551 -0.265625 7.58984375 C-0.2464502 6.8563269 -0.22727539 6.12281006 -0.20751953 5.36706543 C-0.15794816 3.57739321 -0.08173825 1.78849177 0 0 Z " fill="#C7AF7D" transform="translate(6,2)"/>
<path d="M0 0 C25.99984012 -0.11692801 51.99964069 -0.20503468 77.99969101 -0.25906086 C90.07263746 -0.28481565 102.1454203 -0.31991423 114.21826172 -0.37719727 C124.74394698 -0.42711546 135.26951372 -0.45931081 145.79531407 -0.47044247 C151.36597829 -0.47694692 156.93630351 -0.49217768 162.50685883 -0.52865028 C167.75670394 -0.56274259 173.00607238 -0.57302623 178.25601768 -0.56553841 C180.17639703 -0.56690704 182.09679332 -0.57676017 184.01707649 -0.59602737 C194.70798188 -0.69797785 203.41066394 -0.35623014 213 5 C213.82105099 5.45003734 214.64210197 5.90007467 215.48803329 6.3637495 C217.75 7.6875 217.75 7.6875 221 10 C221 10.66 221 11.32 221 12 C222.98 12.99 222.98 12.99 225 14 C225 14.66 225 15.32 225 16 C225.57621094 16.19464844 226.15242187 16.38929687 226.74609375 16.58984375 C232.25246573 20.0349049 235.10734613 28.00442061 237 34 C238.06102159 39.39722238 238.6304504 44.82586651 239.07641602 50.30493164 C239.77295299 58.76649209 241.48465815 65.25902663 247 72 C253.12105468 75.90705618 259.91319318 75.82912149 267 75 C269.97780185 73.94498125 272.27522725 72.64514581 275 71 C275.66 71 276.32 71 277 71 C280.867622 62.15972114 281.49068697 53.54291785 282 44 C282.33 44 282.66 44 283 44 C285.0492961 63.40148805 285.0492961 63.40148805 280 70 C275.85525933 74.41338127 271.7519749 77.72733889 265.609375 78.3359375 C257.22114394 78.42083862 250.70072169 78.3557146 244.296875 72.421875 C237.58877214 65.19275444 236.5288674 57.81342923 235.625 48.3125 C234.29234933 36.24137564 231.89318892 26.5549129 224 17 C223.01 16.34 222.02 15.68 221 15 C221 14.34 221 13.68 221 13 C220.45730469 12.731875 219.91460937 12.46375 219.35546875 12.1875 C217.66017313 11.3328236 215.97651076 10.45492903 214.30078125 9.5625 C213.31464844 9.046875 212.32851563 8.53125 211.3125 8 C210.33925781 7.484375 209.36601562 6.96875 208.36328125 6.4375 C201.57099249 3.53440794 194.80920764 2.702263 187.47679138 2.7215271 C186.6687253 2.7157347 185.86065921 2.7099423 185.02810627 2.70397437 C182.34739054 2.68710421 179.66684831 2.68410916 176.98608398 2.68115234 C175.05374231 2.67184519 173.12140463 2.66167535 171.18907166 2.65071106 C165.96250702 2.62348582 160.73596922 2.60828384 155.50935245 2.59528303 C150.04006302 2.57961973 144.57082814 2.55283972 139.10157776 2.5272522 C128.75335241 2.48052101 118.40511674 2.44374952 108.05684 2.41057932 C96.27205751 2.37231792 84.48732988 2.32291828 72.70259368 2.27259517 C48.46843649 2.16935951 24.23424402 2.08007193 0 2 C0 1.34 0 0.68 0 0 Z " fill="#C9B081" transform="translate(63,27)"/>
<path d="M0 0 C1.9375 0.3125 1.9375 0.3125 4 1 C4.33 1.99 4.66 2.98 5 4 C5.66 4 6.32 4 7 4 C8.33984375 5.4765625 8.33984375 5.4765625 9.9375 7.625 C10.56269531 8.45128906 11.18789062 9.27757812 11.83203125 10.12890625 C12.90517578 11.55009766 12.90517578 11.55009766 14 13 C15.70302569 15.19193258 17.41016169 17.37986682 19.125 19.5625 C19.5883374 20.15305176 20.0516748 20.74360352 20.52905273 21.35205078 C24.68091067 26.62783046 28.91647641 31.83336971 33.16040039 37.03515625 C37.1227091 41.89956368 41.02431587 46.80723777 44.88208008 51.75488281 C47.34269662 54.90671425 49.82963205 58.03363528 52.3515625 61.13671875 C52.9077124 61.82306396 53.4638623 62.50940918 54.03686523 63.21655273 C55.11828449 64.54877296 56.20360007 65.87784198 57.29321289 67.20336914 C61 71.7778464 61 71.7778464 61 74 C61.66 74 62.32 74 63 74 C64.56265298 75.84093365 66.00582635 77.68546448 67.4375 79.625 C68.34564949 80.82995851 69.25452795 82.03436788 70.1640625 83.23828125 C70.86837402 84.17534912 70.86837402 84.17534912 71.58691406 85.13134766 C73.79518006 88.05153908 76.04952599 90.93460085 78.3125 93.8125 C78.76423584 94.38758301 79.21597168 94.96266602 79.68139648 95.55517578 C83.78585535 100.76212221 87.97160289 105.90157237 92.16333008 111.03833008 C96.11219863 115.88512048 99.98848033 120.78349236 103.8359375 125.7109375 C107.33776704 130.18437293 110.90836717 134.59845818 114.5 139 C119.9202106 145.64882348 125.27426134 152.34327047 130.53613281 159.11816406 C131.57445215 160.45294816 132.61577708 161.78539667 133.65917969 163.11621094 C135.40424611 165.34335074 137.14039461 167.57720656 138.875 169.8125 C139.41060547 170.49368896 139.94621094 171.17487793 140.49804688 171.87670898 C147.93197016 181.5130603 147.93197016 181.5130603 150 187 C149.62841797 189.26489258 149.62841797 189.26489258 149 191 C143.44419134 182.738041 143.44419134 182.738041 143 178 C142.34 178 141.68 178 141 178 C141 177.34 141 176.68 141 176 C140.34 176 139.68 176 139 176 C136 171.61538462 136 171.61538462 136 169 C135.01 168.67 134.02 168.34 133 168 C133 167.01 133 166.02 133 165 C132.38125 164.731875 131.7625 164.46375 131.125 164.1875 C129 163 129 163 127 160 C127 159.01 127 158.02 127 157 C126.12601563 156.64421875 126.12601563 156.64421875 125.234375 156.28125 C122.51413306 154.72139098 121.1543209 152.9866339 119.25 150.5 C118.56035156 149.61054688 117.87070313 148.72109375 117.16015625 147.8046875 C116.09087891 146.41636719 116.09087891 146.41636719 115 145 C113.5659746 143.2055511 112.12860178 141.4137709 110.6875 139.625 C109.45304471 138.08756481 108.22342084 136.54623033 107 135 C106.42894531 134.28585938 105.85789062 133.57171875 105.26953125 132.8359375 C104 131 104 131 104 129 C103.01 128.67 102.02 128.34 101 128 C101 127.01 101 126.02 101 125 C100.0409375 124.62875 100.0409375 124.62875 99.0625 124.25 C97 123 97 123 96.4375 120.9375 C96.2209375 119.9784375 96.2209375 119.9784375 96 119 C94.515 118.505 94.515 118.505 93 118 C91.8125 115.4375 91.8125 115.4375 91 113 C90.34 113 89.68 113 89 113 C88.67 111.68 88.34 110.36 88 109 C87.34 109 86.68 109 86 109 C86 108.34 86 107.68 86 107 C85.34 107 84.68 107 84 107 C80 101.70588235 80 101.70588235 80 98 C79.4225 97.773125 78.845 97.54625 78.25 97.3125 C75.40260191 95.65151778 73.87932807 93.68475439 72 91 C72 90.34 72 89.68 72 89 C71.4225 88.79375 70.845 88.5875 70.25 88.375 C67.15522364 86.48374778 65.8081237 84.09964063 64 81 C64 80.34 64 79.68 64 79 C63.01 78.67 62.02 78.34 61 78 C59.61328125 76.4765625 59.61328125 76.4765625 58.3125 74.625 C57.87550781 74.01914063 57.43851563 73.41328125 56.98828125 72.7890625 C56 71 56 71 56 68 C55.4225 67.95875 54.845 67.9175 54.25 67.875 C50.83001567 66.54500609 49.79748768 64.09911668 48 61 C47.67 60.01 47.34 59.02 47 58 C45.35697047 56.31002677 43.68528688 54.64783606 42 53 C40.88125501 51.78408702 39.77717942 50.55452797 38.6875 49.3125 C38.17574219 48.73113281 37.66398437 48.14976563 37.13671875 47.55078125 C36 46 36 46 36 44 C35.34 44 34.68 44 34 44 C33.731875 43.195625 33.46375 42.39125 33.1875 41.5625 C32.5996875 40.2940625 32.5996875 40.2940625 32 39 C30.515 38.505 30.515 38.505 29 38 C27.61328125 36.4765625 27.61328125 36.4765625 26.3125 34.625 C25.65701172 33.71621094 25.65701172 33.71621094 24.98828125 32.7890625 C24 31 24 31 24 28 C23.01 28 22.02 28 21 28 C19.7890625 26.42578125 19.7890625 26.42578125 18.625 24.3125 C16.4760986 20.64065346 14.05614951 17.9777867 11 15 C9.64837492 13.01231606 8.31306433 11.0133653 7 9 C6.0206121 7.97980427 5.02104551 6.97850195 4 6 C0 1.2 0 1.2 0 0 Z " fill="#D6BB83" transform="translate(61,31)"/>
<path d="M0 0 C7.75 0.875 7.75 0.875 10 2 C9.88521587 4.06309376 9.75773802 6.12548354 9.625 8.1875 C9.55539062 9.33605469 9.48578125 10.48460937 9.4140625 11.66796875 C9.02490426 14.79959117 8.3190149 17.15285809 7 20 C6.67 20 6.34 20 6 20 C6.33 14.39 6.66 8.78 7 3 C5.02 2.67 3.04 2.34 1 2 C1 2.99 1 3.98 1 5 C0.34 5 -0.32 5 -1 5 C-1.09410156 5.57234375 -1.18820312 6.1446875 -1.28515625 6.734375 C-2.16511749 9.52332319 -3.49815152 11.07276886 -5.4375 13.25 C-6.05496094 13.95640625 -6.67242187 14.6628125 -7.30859375 15.390625 C-9 17 -9 17 -11 17 C-11.3403125 17.86625 -11.3403125 17.86625 -11.6875 18.75 C-13.37235831 21.63832854 -15.30209095 23.02153337 -18 25 C-19.5159375 26.2065625 -19.5159375 26.2065625 -21.0625 27.4375 C-25.93722625 30.8921973 -31.4731879 32.82748871 -37 35 C-37.87269531 35.38542969 -38.74539062 35.77085937 -39.64453125 36.16796875 C-40.46308594 36.52503906 -41.28164062 36.88210938 -42.125 37.25 C-42.82882813 37.56453125 -43.53265625 37.8790625 -44.2578125 38.203125 C-52.95461382 40.7304006 -62.4805299 40.16622907 -71.44580078 40.20532227 C-72.8758318 40.21492141 -74.30586011 40.22493262 -75.73588562 40.23532104 C-79.58845884 40.26215587 -83.44104404 40.28328019 -87.29365778 40.30332303 C-91.33087455 40.32531611 -95.3680553 40.3526391 -99.40524292 40.37937927 C-107.03703106 40.42912724 -114.66883938 40.47413182 -122.30066669 40.51740164 C-130.99483194 40.56692779 -139.68896102 40.62178848 -148.38309121 40.67708123 C-166.2553605 40.79062624 -184.12766399 40.89752421 -202 41 C-201.34 40.01 -200.68 39.02 -200 38 C-197.56696415 37.62082577 -197.56696415 37.62082577 -194.44264221 37.61473083 C-192.67014854 37.60025909 -192.67014854 37.60025909 -190.86184692 37.585495 C-189.5585141 37.59007217 -188.25518127 37.59464935 -186.91235352 37.59936523 C-185.53090316 37.59362504 -184.14945782 37.58654324 -182.76802063 37.57821655 C-179.78761208 37.56307329 -176.807383 37.55733183 -173.82693672 37.55874443 C-169.10636051 37.56077627 -164.3860253 37.54121945 -159.66551208 37.51856995 C-150.48360666 37.47752918 -141.30171985 37.45899196 -132.11974335 37.44239807 C-120.46521767 37.42007532 -108.8107479 37.38629045 -97.15631241 37.33519894 C-92.47277871 37.31537249 -87.78936999 37.30570349 -83.10579598 37.30424678 C-80.17603279 37.30147599 -77.24633726 37.29060028 -74.31660271 37.27773666 C-72.33038165 37.27148627 -70.34413713 37.2750307 -68.35791016 37.27897644 C-46.941121 37.1578257 -27.15357824 30.41874419 -11.50439453 15.54248047 C-7.07486737 11.00081338 -2.83798932 5.67597865 0 0 Z " fill="#D4BA81" transform="translate(280,386)"/>
<path d="M0 0 C0.99 0 1.98 0 3 0 C2.67 1.65 2.34 3.3 2 5 C1.34 5 0.68 5 0 5 C-1.63671718 6.96915678 -1.63671718 6.96915678 -3.375 9.5625 C-6.71389127 14.27196689 -10.18757867 18.81990204 -13.8125 23.3125 C-14.8489916 24.59893153 -15.88544973 25.88539003 -16.921875 27.171875 C-17.43556641 27.80931641 -17.94925781 28.44675781 -18.47851562 29.10351562 C-20.86102925 32.07324699 -23.21357296 35.06617445 -25.5625 38.0625 C-26.01214111 38.63589111 -26.46178223 39.20928223 -26.92504883 39.80004883 C-27.83058886 40.95525849 -28.73594419 42.11061295 -29.64111328 43.26611328 C-31.92453303 46.17966827 -34.21250803 49.08964193 -36.5 52 C-37.41668823 53.16664973 -38.3333549 54.33331639 -39.25 55.5 C-44.75 62.5 -44.75 62.5 -46.12719727 64.25268555 C-47.03668371 65.41028727 -47.946028 66.5680007 -48.85522461 67.72583008 C-51.25554791 70.78215842 -53.6588749 73.8360641 -56.06640625 76.88671875 C-56.56785156 77.52287109 -57.06929687 78.15902344 -57.5859375 78.81445312 C-58.54726881 80.03391969 -59.50946435 81.25270561 -60.47265625 82.47070312 C-62.41249364 84.93302648 -64.25998061 87.38997091 -66 90 C-66.66 90 -67.32 90 -68 90 C-68.2371875 90.7115625 -68.474375 91.423125 -68.71875 92.15625 C-70.216932 95.48148321 -72.10968447 97.74659857 -74.5 100.5 C-78.29237582 104.9302736 -81.95400033 109.43227296 -85.5 114.0625 C-85.92087891 114.61035156 -86.34175781 115.15820312 -86.77539062 115.72265625 C-88.59643303 118.10699982 -90.33493212 120.50239818 -92 123 C-92.66 123 -93.32 123 -94 123 C-94.37125 124.0828125 -94.37125 124.0828125 -94.75 125.1875 C-96.12269592 128.27606582 -97.72353296 130.51011418 -100 133 C-100.66 133 -101.32 133 -102 133 C-101.67 131.35 -101.34 129.7 -101 128 C-100.34 128 -99.68 128 -99 128 C-98.74863281 127.45214844 -98.49726562 126.90429688 -98.23828125 126.33984375 C-94.59985617 119.46471244 -89.55084945 113.39665918 -84 108 C-82.65358514 106.00878309 -81.32221729 104.00736624 -80 102 C-78.47602624 99.86227572 -76.93429977 97.73709501 -75.375 95.625 C-74.59898438 94.56539063 -73.82296875 93.50578125 -73.0234375 92.4140625 C-72.35570313 91.61742187 -71.68796875 90.82078125 -71 90 C-70.34 90 -69.68 90 -69 90 C-68.34 88.35 -67.68 86.7 -67 85 C-66.34 85 -65.68 85 -65 85 C-65 84.34 -65 83.68 -65 83 C-64.34 83 -63.68 83 -63 83 C-62.7525 82.46375 -62.505 81.9275 -62.25 81.375 C-60.69347463 78.4176018 -58.96564327 75.70275949 -57 73 C-56.34 73 -55.68 73 -55 73 C-54.773125 72.319375 -54.54625 71.63875 -54.3125 70.9375 C-52.68773854 67.3011291 -50.67196743 63.97170737 -48 61 C-47.34 61 -46.68 61 -46 61 C-45.62488281 59.89978516 -45.62488281 59.89978516 -45.2421875 58.77734375 C-43.89909058 55.77438176 -42.37602683 53.94519067 -40.125 51.5625 C-37.03837199 48.19879587 -34.48063833 44.84098838 -32 41 C-30.80846032 39.36264615 -29.59883799 37.73835521 -28.375 36.125 C-27.78460938 35.34382813 -27.19421875 34.56265625 -26.5859375 33.7578125 C-26.06257813 33.17773438 -25.53921875 32.59765625 -25 32 C-24.34 32 -23.68 32 -23 32 C-22.5978125 30.8553125 -22.5978125 30.8553125 -22.1875 29.6875 C-21.0249027 27.05635874 -20.02708537 25.94262348 -18 24 C-16.82425289 21.90010348 -16.82425289 21.90010348 -16 20 C-15.34 20 -14.68 20 -14 20 C-13.731875 19.360625 -13.46375 18.72125 -13.1875 18.0625 C-12 16 -12 16 -9 15 C-9 14.01 -9 13.02 -9 12 C-8.34 12 -7.68 12 -7 12 C-6.773125 11.319375 -6.54625 10.63875 -6.3125 9.9375 C-4.69789662 6.32386386 -2.77486812 2.85720842 0 0 Z " fill="#D9BB81" transform="translate(179,291)"/>
<path d="M0 0 C0.33 0 0.66 0 1 0 C1.05945801 0.55872803 1.11891602 1.11745605 1.18017578 1.69311523 C2.32470231 16.68699299 2.32470231 16.68699299 10 29 C15.98946669 33.03372247 22.96845368 32.82265628 30 32 C32.97780185 30.94498125 35.27522725 29.64514581 38 28 C38.66 28 39.32 28 40 28 C43.867622 19.15972114 44.49068697 10.54291785 45 1 C45.33 1 45.66 1 46 1 C48.0492961 20.40148805 48.0492961 20.40148805 43 27 C38.85525933 31.41338127 34.7519749 34.72733889 28.609375 35.3359375 C20.22114394 35.42083862 13.70072169 35.3557146 7.296875 29.421875 C1.23876579 22.89323304 -0.4779434 16.75346034 -0.1875 8.0625 C-0.17396484 7.28326172 -0.16042969 6.50402344 -0.14648438 5.70117188 C-0.11150224 3.80047596 -0.05770959 1.90014166 0 0 Z " fill="#E0C389" transform="translate(300,70)"/>
<path d="M0 0 C4.77018175 0.74929846 6.80426732 3.45590438 9.83984375 7.0078125 C12.36551991 10.50630787 14.37433904 14.08973376 16.3125 17.9375 C16.63766602 18.58082275 16.96283203 19.22414551 17.29785156 19.88696289 C21.65396065 28.93278754 23.46240147 37.08757185 23.1875 47.125 C23.16719727 48.55972656 23.16719727 48.55972656 23.14648438 50.0234375 C23.11159222 52.3495811 23.06258339 54.6744653 23 57 C22.67 57 22.34 57 22 57 C21.67 52.05 21.34 47.1 21 42 C20.67 42 20.34 42 20 42 C19.51774669 39.8131784 19.03934417 37.62550745 18.5625 35.4375 C18.29566406 34.21933594 18.02882813 33.00117187 17.75390625 31.74609375 C17.03292641 28.16360843 16.47992499 24.62040498 16 21 C15.34 21 14.68 21 14 21 C12.59765625 18.953125 12.59765625 18.953125 11.0625 16.25 C9.5737339 13.64561122 8.13635002 11.17760142 6.30859375 8.796875 C5 7 5 7 5 5 C4.01 4.67 3.02 4.34 2 4 C0.8125 1.9375 0.8125 1.9375 0 0 Z " fill="#CDB57E" transform="translate(324,30)"/>
<path d="M0 0 C0.99 0.66 1.98 1.32 3 2 C3 3.32 3 4.64 3 6 C2.01 6.66 1.02 7.32 0 8 C-1.19541332 10.30382317 -1.19541332 10.30382317 -2.125 12.9375 C-2.45757812 13.81277344 -2.79015625 14.68804687 -3.1328125 15.58984375 C-3.7787013 17.38494909 -4.39671105 19.19013316 -5 21 C-5.66 21 -6.32 21 -7 21 C-7.13664063 21.58523437 -7.27328125 22.17046875 -7.4140625 22.7734375 C-8.13035201 25.49533763 -9.16231151 28.06970492 -10.16796875 30.6953125 C-11.62813837 34.73991378 -12.80675681 38.87019379 -14 43 C-14.66 43 -15.32 43 -16 43 C-16.33 44.98 -16.66 46.96 -17 49 C-17.99 49 -18.98 49 -20 49 C-19.32138844 44.41505756 -17.60092991 40.38801066 -15.76171875 36.171875 C-15.43967972 35.42343323 -15.11764069 34.67499146 -14.7858429 33.90386963 C-13.7575843 31.51726498 -12.7225988 29.13364472 -11.6875 26.75 C-11.00282226 25.16294713 -10.31857321 23.57570924 -9.63476562 21.98828125 C-6.46543883 14.63993572 -3.27286097 7.30293912 0 0 Z " fill="#F8F0DB" transform="translate(210,222)"/>
<path d="M0 0 C4.63196402 0.56145018 8.09088948 2.61357262 12 5 C13.4540625 5.804375 13.4540625 5.804375 14.9375 6.625 C15.618125 7.07875 16.29875 7.5325 17 8 C17 8.66 17 9.32 17 10 C18.32 10.66 19.64 11.32 21 12 C21 12.66 21 13.32 21 14 C21.57363281 14.17402344 22.14726562 14.34804688 22.73828125 14.52734375 C26.13632715 16.73988832 27.47228487 20.01257199 29.1875 23.5625 C29.71911743 24.64905884 29.71911743 24.64905884 30.26147461 25.75756836 C33.85375545 33.37825633 34.59085089 39.69222314 33 48 C32.67 48 32.34 48 32 48 C31.91363281 47.12859375 31.82726562 46.2571875 31.73828125 45.359375 C30.38994188 33.9294156 27.40816106 23.96777391 20 15 C19.01 14.34 18.02 13.68 17 13 C17 12.34 17 11.68 17 11 C16.47921875 10.74476562 15.9584375 10.48953125 15.421875 10.2265625 C12.33482108 8.66311906 9.29478342 7.01918305 6.25 5.375 C5.34701172 4.88773438 5.34701172 4.88773438 4.42578125 4.390625 C2.95022703 3.59429415 1.47507314 2.79722161 0 2 C0 1.34 0 0.68 0 0 Z " fill="#D6BB7E" transform="translate(267,29)"/>
<path d="M0 0 C0.66 0 1.32 0 2 0 C1.38446439 3.61001132 0.40029838 6.72566844 -1.046875 10.0859375 C-1.47363525 11.08471924 -1.90039551 12.08350098 -2.34008789 13.11254883 C-2.80535889 14.18915771 -3.27062988 15.2657666 -3.75 16.375 C-4.74407919 18.69896663 -5.73754082 21.0231975 -6.73046875 23.34765625 C-7.12177223 24.26133217 -7.12177223 24.26133217 -7.52098083 25.19346619 C-10.44760007 32.03056519 -13.32429498 38.88848249 -16.19763184 45.74810791 C-17.0505831 47.78405501 -17.9045888 49.81955713 -18.75878906 51.85498047 C-19.28846137 53.11814314 -19.81808608 54.38132576 -20.34765625 55.64453125 C-21.04387085 57.30512573 -21.04387085 57.30512573 -21.75415039 58.99926758 C-22.85800209 61.65798622 -23.93842781 64.32416704 -25 67 C-26.71187527 62.88531184 -25.14600215 59.93328189 -23.625 55.9375 C-23.16351563 54.70902344 -22.70203125 53.48054688 -22.2265625 52.21484375 C-21.82179687 51.15394531 -21.41703125 50.09304688 -21 49 C-20.67 48.01 -20.34 47.02 -20 46 C-19.34 46 -18.68 46 -18 46 C-17.85304687 45.44054687 -17.70609375 44.88109375 -17.5546875 44.3046875 C-15.12464546 35.6179855 -11.55381108 27.43563459 -7.72265625 19.28125 C-5.83426846 15.24910524 -4.74875603 12.52239145 -5 8 C-4 5.1875 -4 5.1875 -3 3 C-2.01 3 -1.02 3 0 3 C0 2.01 0 1.02 0 0 Z " fill="#B29865" transform="translate(208,221)"/>
<path d="M0 0 C0.33 0 0.66 0 1 0 C3.0492961 19.40148805 3.0492961 19.40148805 -2 26 C-5.17969975 29.3857914 -8.63409896 32.3102346 -13 34 C-15.578125 33.9765625 -15.578125 33.9765625 -18.25 33.625 C-19.14203125 33.51414063 -20.0340625 33.40328125 -20.953125 33.2890625 C-21.62859375 33.19367188 -22.3040625 33.09828125 -23 33 C-23 32.67 -23 32.34 -23 32 C-22.26394531 31.89042969 -21.52789062 31.78085938 -20.76953125 31.66796875 C-15.55214019 30.82022886 -11.39231632 30.11712771 -7 27 C-6.34 27 -5.68 27 -5 27 C-1.132378 18.15972114 -0.50931303 9.54291785 0 0 Z " fill="#D7BF8D" transform="translate(345,71)"/>
<path d="M0 0 C7.75 0.875 7.75 0.875 10 2 C9.88521587 4.06309376 9.75773802 6.12548354 9.625 8.1875 C9.55539062 9.33605469 9.48578125 10.48460937 9.4140625 11.66796875 C9.02490426 14.79959117 8.3190149 17.15285809 7 20 C6.67 20 6.34 20 6 20 C6.33 14.39 6.66 8.78 7 3 C5.02 3 3.04 3 1 3 C0.01 3 -0.98 3 -2 3 C-1.34 2.01 -0.68 1.02 0 0 Z " fill="#D7B886" transform="translate(280,386)"/>
<path d="M0 0 C0.99 0 1.98 0 3 0 C2.67 1.65 2.34 3.3 2 5 C1.34 5 0.68 5 0 5 C-1.40034072 6.71833476 -2.72205227 8.50129099 -4 10.3125 C-4.70125 11.29863281 -5.4025 12.28476562 -6.125 13.30078125 C-7.43560452 15.18750567 -8.72570825 17.08856237 -10 19 C-10.66 19 -11.32 19 -12 19 C-11.67 17.68 -11.34 16.36 -11 15 C-10.34 15 -9.68 15 -9 15 C-9 14.01 -9 13.02 -9 12 C-8.34 12 -7.68 12 -7 12 C-6.773125 11.319375 -6.54625 10.63875 -6.3125 9.9375 C-4.69789662 6.32386386 -2.77486812 2.85720842 0 0 Z " fill="#DFC693" transform="translate(179,291)"/>
<path d="M0 0 C1.9375 0.3125 1.9375 0.3125 4 1 C4.33 1.99 4.66 2.98 5 4 C5.66 4 6.32 4 7 4 C8.69140625 5.8984375 8.69140625 5.8984375 10.5625 8.375 C11.49255859 9.59316406 11.49255859 9.59316406 12.44140625 10.8359375 C14 13 14 13 15 15 C12.6875 14.8125 12.6875 14.8125 10 14 C8.375 11.625 8.375 11.625 7 9 C6.02149805 7.97895449 5.02019573 6.9793879 4 6 C0 1.2 0 1.2 0 0 Z " fill="#DCC07D" transform="translate(61,31)"/>
<path d="M0 0 C0.66 0.33 1.32 0.66 2 1 C1.34 1.66 0.68 2.32 0 3 C-0.46486718 6.12196336 -0.46486718 6.12196336 -0.625 9.625 C-0.69976562 10.81351562 -0.77453125 12.00203125 -0.8515625 13.2265625 C-0.90054687 14.14179688 -0.94953125 15.05703125 -1 16 C-1.99 16 -2.98 16 -4 16 C-4.1080023 13.89695523 -4.18558987 11.79233091 -4.25 9.6875 C-4.31960937 7.92986328 -4.31960937 7.92986328 -4.390625 6.13671875 C-4 3 -4 3 -1.984375 1.08203125 C-1.32953125 0.72496094 -0.6746875 0.36789062 0 0 Z " fill="#C7B583" transform="translate(10,453)"/>
<path d="M0 0 C3 1 3 1 4.1875 3 C5.28113733 7.03804554 5.16301345 10.84315708 5 15 C4.01 15 3.02 15 2 15 C1.93941406 14.33613281 1.87882813 13.67226562 1.81640625 12.98828125 C1.20136493 6.45091919 1.20136493 6.45091919 0 0 Z " fill="#DEBE74" transform="translate(168,226)"/>
<path d="M0 0 C1.44504567 4.60739198 0.70295453 8.53793165 -1 13 C-3.625 15.5625 -3.625 15.5625 -6 17 C-4.33846988 11.14340094 -2.52958084 5.5409866 0 0 Z " fill="#F4EAD1" transform="translate(189,271)"/>
<path d="M0 0 C3 1 3 1 4 3 C-2.55276707 5.28584898 -9.10401439 5.60594368 -16 6 C-16.33 5.34 -16.66 4.68 -17 4 C-15.78763672 3.94392578 -15.78763672 3.94392578 -14.55078125 3.88671875 C-13.48214844 3.82097656 -12.41351563 3.75523437 -11.3125 3.6875 C-10.25675781 3.62949219 -9.20101562 3.57148438 -8.11328125 3.51171875 C-4.75854938 2.96031364 -2.86746005 1.74392374 0 0 Z " fill="#C6AB78" transform="translate(243,464)"/>
<path d="M0 0 C0.99 0 1.98 0 3 0 C2.79375 0.763125 2.5875 1.52625 2.375 2.3125 C1.66608797 5.21885944 1.66608797 5.21885944 4 8 C3.625 10 3.625 10 3 12 C3 12.99 3 13.98 3 15 C1.51171875 13.88671875 1.51171875 13.88671875 0 12 C-0.29296875 9.08203125 -0.29296875 9.08203125 -0.1875 5.8125 C-0.16042969 4.72582031 -0.13335937 3.63914062 -0.10546875 2.51953125 C-0.07066406 1.68808594 -0.03585937 0.85664062 0 0 Z " fill="#C19C56" transform="translate(9,5)"/>
<path d="M0 0 C0.66 0 1.32 0 2 0 C1.39147692 3.54971796 0.61653196 6.76693609 -1 10 C-1.99 10.33 -2.98 10.66 -4 11 C-4 7.88742431 -3.82638376 5.89234315 -3 3 C-2.01 3 -1.02 3 0 3 C0 2.01 0 1.02 0 0 Z " fill="#BC9E68" transform="translate(208,221)"/>
<path d="M0 0 C7.75 0.875 7.75 0.875 10 2 C10 3.32 10 4.64 10 6 C9.34 6 8.68 6 8 6 C7.608125 5.484375 7.21625 4.96875 6.8125 4.4375 C4.90092967 2.5841746 4.90092967 2.5841746 1.3125 3.3125 C0.219375 3.539375 -0.87375 3.76625 -2 4 C-1.34 2.68 -0.68 1.36 0 0 Z " fill="#E1C899" transform="translate(280,386)"/>
<path d="M0 0 C0.99 0.66 1.98 1.32 3 2 C3 3.32 3 4.64 3 6 C2.01 6.66 1.02 7.32 0 8 C-0.66 8.99 -1.32 9.98 -2 11 C-2.28571429 3.57142857 -2.28571429 3.57142857 0 0 Z " fill="#FAF5E5" transform="translate(210,222)"/>
<path d="M0 0 C0.99 0 1.98 0 3 0 C1.4722133 3.43752007 -0.50181056 6.18953688 -3 9 C-3.66 9 -4.32 9 -5 9 C-3.76067171 5.56801397 -2.49698489 2.69674368 0 0 Z " fill="#DCBB91" transform="translate(129,355)"/>
<path d="M0 0 C0.66 0.99 1.32 1.98 2 3 C1.04882866 4.1725131 0.08882991 5.33787015 -0.875 6.5 C-1.40867188 7.1496875 -1.94234375 7.799375 -2.4921875 8.46875 C-2.98976562 8.9740625 -3.48734375 9.479375 -4 10 C-4.66 10 -5.32 10 -6 10 C-5.1875 7.0625 -5.1875 7.0625 -4 4 C-3.01 3.67 -2.02 3.34 -1 3 C-0.67 2.01 -0.34 1.02 0 0 Z " fill="#D3B780" transform="translate(166,308)"/>
<path d="M0 0 C1.32 0.66 2.64 1.32 4 2 C3.67 3.32 3.34 4.64 3 6 C2.01 6 1.02 6 0 6 C0 5.01 0 4.02 0 3 C-1.65 4.65 -3.3 6.3 -5 8 C-3.8141763 4.62496331 -2.72426311 2.35277269 0 0 Z " fill="#C19E54" transform="translate(27,434)"/>
<path d="M0 0 C0.99 0.33 1.98 0.66 3 1 C1.4169423 5.2742558 -1.50568404 7.26531794 -5 10 C-3.84414715 6.08788267 -2.64465038 3.1254959 0 0 Z " fill="#CAB280" transform="translate(98,337)"/>
<path d="M0 0 C0.66 0 1.32 0 2 0 C6.09326923 6.45 6.09326923 6.45 5.62109375 9.234375 C5.41613281 9.81703125 5.21117187 10.3996875 5 11 C4.15841464 9.73461631 3.32700252 8.46246221 2.5 7.1875 C1.80390625 6.12595703 1.80390625 6.12595703 1.09375 5.04296875 C0 3 0 3 0 0 Z " fill="#DCC38F" transform="translate(205,211)"/>
<path d="M0 0 C0.66 1.32 1.32 2.64 2 4 C1.38125 4.2475 0.7625 4.495 0.125 4.75 C-2.35068687 6.20628639 -2.95125002 7.37812506 -4 10 C-4.66 9.34 -5.32 8.68 -6 8 C-4.02 5.36 -2.04 2.72 0 0 Z " fill="#D4AE81" transform="translate(128,298)"/>
<path d="M0 0 C1.44977894 2.34112451 2.04314411 3.5796929 1.7578125 6.359375 C1.54898437 7.14828125 1.34015625 7.9371875 1.125 8.75 C0.92132813 9.54921875 0.71765625 10.3484375 0.5078125 11.171875 C0.34023438 11.77515625 0.17265625 12.3784375 0 13 C-2 10 -2 10 -1.7578125 7.51953125 C-1.54898437 6.62621094 -1.34015625 5.73289062 -1.125 4.8125 C-0.92132813 3.91144531 -0.71765625 3.01039063 -0.5078125 2.08203125 C-0.34023438 1.39496094 -0.17265625 0.70789063 0 0 Z " fill="#D1BC73" transform="translate(281,422)"/>
<path d="M0 0 C0.66 0 1.32 0 2 0 C2 0.66 2 1.32 2 2 C1.34 2 0.68 2 0 2 C-0.33 4.31 -0.66 6.62 -1 9 C-2.32 9 -3.64 9 -5 9 C-5 4.68381834 -2.86729652 3.07210341 0 0 Z " fill="#C29D54" transform="translate(140,288)"/>
<path d="M0 0 C2.1875 0.0625 2.1875 0.0625 5 1 C6.93157957 3.1717219 8.48201687 5.52601047 10 8 C9.67 8.66 9.34 9.32 9 10 C8.67 9.01 8.34 8.02 8 7 C7.34 7 6.68 7 6 7 C5.525625 6.360625 5.05125 5.72125 4.5625 5.0625 C3.0908635 2.71627037 3.0908635 2.71627037 0 2 C0 1.34 0 0.68 0 0 Z " fill="#C09B56" transform="translate(177,181)"/>
<path d="M0 0 C0.33 0.66 0.66 1.32 1 2 C1.66 2.33 2.32 2.66 3 3 C2.01 3.33 1.02 3.66 0 4 C-0.66 3.67 -1.32 3.34 -2 3 C-2 4.32 -2 5.64 -2 7 C-2.99 6.67 -3.98 6.34 -5 6 C-4.75 4.125 -4.75 4.125 -4 2 C-1.9375 0.75 -1.9375 0.75 0 0 Z " fill="#CAA668" transform="translate(65,24)"/>
<path d="M0 0 C0.66 0.99 1.32 1.98 2 3 C-0.64 4.98 -3.28 6.96 -6 9 C-5 7 -4 5 -3 3 C-2.34 3 -1.68 3 -1 3 C-0.67 2.01 -0.34 1.02 0 0 Z " fill="#CDAF72" transform="translate(13,447)"/>
<path d="M0 0 C0.99 0 1.98 0 3 0 C5.1875 2.5 5.1875 2.5 7 5 C6.67 5.66 6.34 6.32 6 7 C3.00675737 5.9024777 2.15389099 5.32317108 0.75 2.375 C0.5025 1.59125 0.255 0.8075 0 0 Z " fill="#D2B978" transform="translate(69,96)"/>
<path d="M0 0 C0.66 0.66 1.32 1.32 2 2 C0.71937515 3.7074998 -0.61767557 5.37373596 -2 7 C-2.66 7 -3.32 7 -4 7 C-3.43628586 3.73045798 -2.50037734 2.17424117 0 0 Z " fill="#DFBE84" transform="translate(140,342)"/>
<path d="M0 0 C2.97 0.495 2.97 0.495 6 1 C6 1.99 6 2.98 6 4 C3.36 3.67 0.72 3.34 -2 3 C-1.34 2.01 -0.68 1.02 0 0 Z " fill="#C9B373" transform="translate(261,27)"/>
<path d="M0 0 C0.99 0 1.98 0 3 0 C3.33 1.98 3.66 3.96 4 6 C3.01 5.67 2.02 5.34 1 5 C0.67 3.35 0.34 1.7 0 0 Z " fill="#C0A461" transform="translate(201,209)"/>
<path d="M0 0 C2.5 2.3125 2.5 2.3125 5 5 C5 5.99 5 6.98 5 8 C2.5 5.6875 2.5 5.6875 0 3 C0 2.01 0 1.02 0 0 Z " fill="#CFB482" transform="translate(146,193)"/>
<path d="M0 0 C0.99 0.33 1.98 0.66 3 1 C2.67 1.99 2.34 2.98 2 4 C2.99 4.33 3.98 4.66 5 5 C3.02 5.99 3.02 5.99 1 7 C0.67 4.69 0.34 2.38 0 0 Z " fill="#C5A367" transform="translate(75,420)"/>
<path d="M0 0 C0.99 0.33 1.98 0.66 3 1 C1.02 3.97 1.02 3.97 -1 7 C-2 4 -2 4 -1.0625 1.8125 C-0.5365625 0.9153125 -0.5365625 0.9153125 0 0 Z " fill="#CCB37D" transform="translate(55,393)"/>
<path d="M0 0 C2.475 0.495 2.475 0.495 5 1 C5.68707555 3.49064888 6 5.37886292 6 8 C4.02 5.36 2.04 2.72 0 0 Z " fill="#C6AC74" transform="translate(83,115)"/>
<path d="M0 0 C1.32 1.65 2.64 3.3 4 5 C3.01 5.495 3.01 5.495 2 6 C1.67 6.66 1.34 7.32 1 8 C0.01 6.02 -0.98 4.04 -2 2 C-1.34 2 -0.68 2 0 2 C0 1.34 0 0.68 0 0 Z " fill="#C6AC75" transform="translate(335,40)"/>
</svg>
